<mxfile host="Electron" agent="Mozilla/5.0 (Macintosh; Intel Mac OS X 10_15_7) AppleWebKit/537.36 (KHTML, like Gecko) draw.io/28.1.2 Chrome/138.0.7204.243 Electron/37.4.0 Safari/537.36" version="28.1.2">
  <diagram name="Page-1" id="UPUowpIk6W7c6kZH7XhG">
    <mxGraphModel dx="1018" dy="714" grid="1" gridSize="10" guides="1" tooltips="1" connect="1" arrows="1" fold="1" page="1" pageScale="1" pageWidth="1654" pageHeight="1169" math="0" shadow="0">
      <root>
        <mxCell id="0" />
        <mxCell id="1" parent="0" />
        <mxCell id="sz-M_Azw0uYvEaWHzbE8-1" value="&lt;b&gt;&lt;font style=&quot;font-size: 20px; color: rgb(0, 92, 185);&quot;&gt;Kaso SACCO&lt;/font&gt;&lt;/b&gt;" style="text;html=1;align=center;verticalAlign=middle;whiteSpace=wrap;rounded=0;movable=0;resizable=0;rotatable=0;deletable=0;editable=0;locked=1;connectable=0;" parent="1" vertex="1">
          <mxGeometry x="1500" y="10" width="140" height="30" as="geometry" />
        </mxCell>
        <mxCell id="sz-M_Azw0uYvEaWHzbE8-7" value="&lt;div style=&quot;box-sizing:border-box;width:100%;background:#e4e4e4;padding:2px;&quot;&gt;userRole&lt;/div&gt;&lt;table style=&quot;width:100%;font-size:1em;&quot; cellpadding=&quot;2&quot; cellspacing=&quot;0&quot;&gt;&lt;tbody&gt;&lt;tr&gt;&lt;td&gt;PK&lt;/td&gt;&lt;td&gt;id (INT)&lt;/td&gt;&lt;/tr&gt;&lt;tr&gt;&lt;td&gt;&lt;br&gt;&lt;/td&gt;&lt;td&gt;name (TEXT)&lt;/td&gt;&lt;/tr&gt;&lt;tr&gt;&lt;td&gt;&lt;/td&gt;&lt;td&gt;active (INT)&lt;br&gt;createdAt (TIMESTAMP)&lt;br&gt;updatedAt (TIMESTAMP)&lt;br&gt;&lt;br&gt;&lt;/td&gt;&lt;/tr&gt;&lt;/tbody&gt;&lt;/table&gt;" style="verticalAlign=top;align=left;overflow=fill;html=1;whiteSpace=wrap;" parent="1" vertex="1">
          <mxGeometry x="1424.5" y="100" width="170" height="110" as="geometry" />
        </mxCell>
        <mxCell id="sz-M_Azw0uYvEaWHzbE8-102" style="edgeStyle=orthogonalEdgeStyle;rounded=0;orthogonalLoop=1;jettySize=auto;html=1;entryX=0;entryY=0.5;entryDx=0;entryDy=0;" parent="1" source="sz-M_Azw0uYvEaWHzbE8-8" target="sz-M_Azw0uYvEaWHzbE8-9" edge="1">
          <mxGeometry relative="1" as="geometry" />
        </mxCell>
        <mxCell id="sz-M_Azw0uYvEaWHzbE8-8" value="&lt;div style=&quot;box-sizing:border-box;width:100%;background:#e4e4e4;padding:2px;&quot;&gt;account&lt;/div&gt;&lt;table style=&quot;width:100%;font-size:1em;&quot; cellpadding=&quot;2&quot; cellspacing=&quot;0&quot;&gt;&lt;tbody&gt;&lt;tr&gt;&lt;td&gt;PK&lt;/td&gt;&lt;td&gt;id (INT)&lt;/td&gt;&lt;/tr&gt;&lt;tr&gt;&lt;td&gt;&lt;br&gt;&lt;/td&gt;&lt;td&gt;name (TEXT)&lt;/td&gt;&lt;/tr&gt;&lt;tr&gt;&lt;td&gt;&lt;/td&gt;&lt;td&gt;number (INT)&lt;br&gt;normal (INT)&lt;br&gt;active (INT)&lt;br&gt;createdAt (TIMESTAMP)&lt;br&gt;updatedAt (TIMESTAMP)&lt;br&gt;&lt;br&gt;&lt;/td&gt;&lt;/tr&gt;&lt;/tbody&gt;&lt;/table&gt;" style="verticalAlign=top;align=left;overflow=fill;html=1;whiteSpace=wrap;" parent="1" vertex="1">
          <mxGeometry x="1067.25" y="407.5" width="170" height="140" as="geometry" />
        </mxCell>
        <mxCell id="sz-M_Azw0uYvEaWHzbE8-9" value="&lt;div style=&quot;box-sizing:border-box;width:100%;background:#e4e4e4;padding:2px;&quot;&gt;accountTransaction&lt;/div&gt;&lt;table style=&quot;width:100%;font-size:1em;&quot; cellpadding=&quot;2&quot; cellspacing=&quot;0&quot;&gt;&lt;tbody&gt;&lt;tr&gt;&lt;td&gt;PK&lt;/td&gt;&lt;td&gt;id (INT)&lt;/td&gt;&lt;/tr&gt;&lt;tr&gt;&lt;td&gt;&lt;br&gt;&lt;/td&gt;&lt;td&gt;date (TEXT)&lt;br&gt;description (TEXT)&lt;br&gt;active (INT)&lt;br&gt;createdAt (TIMESTAMP)&lt;br&gt;updatedAt (TIMESTAMP)&lt;/td&gt;&lt;/tr&gt;&lt;tr&gt;&lt;td&gt;&lt;/td&gt;&lt;td&gt;&lt;br&gt;&lt;br&gt;&lt;/td&gt;&lt;/tr&gt;&lt;/tbody&gt;&lt;/table&gt;" style="verticalAlign=top;align=left;overflow=fill;html=1;whiteSpace=wrap;" parent="1" vertex="1">
          <mxGeometry x="1435" y="417.5" width="170" height="120" as="geometry" />
        </mxCell>
        <mxCell id="sz-M_Azw0uYvEaWHzbE8-10" value="&lt;div style=&quot;box-sizing:border-box;width:100%;background:#e4e4e4;padding:2px;&quot;&gt;accountJournal&lt;/div&gt;&lt;table style=&quot;width:100%;font-size:1em;&quot; cellpadding=&quot;2&quot; cellspacing=&quot;0&quot;&gt;&lt;tbody&gt;&lt;tr&gt;&lt;td&gt;PK&lt;br&gt;FK1&lt;br&gt;FK2&lt;br&gt;&lt;/td&gt;&lt;td&gt;id (INT)&lt;br&gt;account (INT)&lt;br&gt;accountTransactionId (INT)&lt;br&gt;&lt;/td&gt;&lt;/tr&gt;&lt;tr&gt;&lt;td&gt;&lt;br&gt;&lt;/td&gt;&lt;td&gt;date (TEXT)&lt;br&gt;amount (REAL)&lt;br&gt;direction (INT)&lt;br&gt;active (INT)&lt;br&gt;createdAt (TIMESTAMP)&lt;br&gt;updatedAt (TIMESTAMP)&lt;br&gt;&lt;/td&gt;&lt;/tr&gt;&lt;tr&gt;&lt;td&gt;&lt;/td&gt;&lt;td&gt;&lt;br&gt;&lt;br&gt;&lt;/td&gt;&lt;/tr&gt;&lt;/tbody&gt;&lt;/table&gt;" style="verticalAlign=top;align=left;overflow=fill;html=1;whiteSpace=wrap;" parent="1" vertex="1">
          <mxGeometry x="1420" y="630" width="200" height="170" as="geometry" />
        </mxCell>
        <mxCell id="sz-M_Azw0uYvEaWHzbE8-96" style="edgeStyle=orthogonalEdgeStyle;rounded=0;orthogonalLoop=1;jettySize=auto;html=1;" parent="1" source="sz-M_Azw0uYvEaWHzbE8-12" target="sz-M_Azw0uYvEaWHzbE8-7" edge="1">
          <mxGeometry relative="1" as="geometry" />
        </mxCell>
        <mxCell id="sz-M_Azw0uYvEaWHzbE8-12" value="&lt;div style=&quot;box-sizing:border-box;width:100%;background:#e4e4e4;padding:2px;&quot;&gt;user&lt;/div&gt;&lt;table style=&quot;width:100%;font-size:1em;&quot; cellpadding=&quot;2&quot; cellspacing=&quot;0&quot;&gt;&lt;tbody&gt;&lt;tr&gt;&lt;td&gt;PK&lt;/td&gt;&lt;td&gt;id (INT)&lt;/td&gt;&lt;/tr&gt;&lt;tr&gt;&lt;td&gt;&lt;br&gt;&lt;/td&gt;&lt;td&gt;username (TEXT)&lt;/td&gt;&lt;/tr&gt;&lt;tr&gt;&lt;td&gt;&lt;/td&gt;&lt;td&gt;password (TEXT)&lt;br&gt;name (TEXT)&lt;br&gt;userRole (TEXT)&lt;br&gt;active (INT)&lt;br&gt;createdAt (TIMESTAMP)&lt;br&gt;updatedAt (TIMESTAMP)&lt;br&gt;&lt;br&gt;&lt;/td&gt;&lt;/tr&gt;&lt;/tbody&gt;&lt;/table&gt;" style="verticalAlign=top;align=left;overflow=fill;html=1;whiteSpace=wrap;" parent="1" vertex="1">
          <mxGeometry x="1174.5" y="80" width="170" height="150" as="geometry" />
        </mxCell>
        <mxCell id="sz-M_Azw0uYvEaWHzbE8-66" style="edgeStyle=orthogonalEdgeStyle;rounded=0;orthogonalLoop=1;jettySize=auto;html=1;entryX=0.5;entryY=0;entryDx=0;entryDy=0;" parent="1" source="sz-M_Azw0uYvEaWHzbE8-13" target="sz-M_Azw0uYvEaWHzbE8-15" edge="1">
          <mxGeometry relative="1" as="geometry" />
        </mxCell>
        <mxCell id="sz-M_Azw0uYvEaWHzbE8-13" value="&lt;div style=&quot;box-sizing:border-box;width:100%;background:#e4e4e4;padding:2px;&quot;&gt;memberIdsCache&lt;/div&gt;&lt;table style=&quot;width:100%;font-size:1em;&quot; cellpadding=&quot;2&quot; cellspacing=&quot;0&quot;&gt;&lt;tbody&gt;&lt;tr&gt;&lt;td&gt;PK&lt;br&gt;FK1&lt;/td&gt;&lt;td&gt;id (INT)&lt;br&gt;memberId (INT)&lt;/td&gt;&lt;/tr&gt;&lt;tr&gt;&lt;td&gt;&lt;br&gt;&lt;/td&gt;&lt;td&gt;idNumber (TEXT)&lt;/td&gt;&lt;/tr&gt;&lt;tr&gt;&lt;td&gt;&lt;/td&gt;&lt;td&gt;claimed (INT)&lt;br&gt;active (INT)&lt;br&gt;createdAt (TIMESTAMP)&lt;br&gt;updatedAt (TIMESTAMP)&lt;br&gt;&lt;br&gt;&lt;/td&gt;&lt;/tr&gt;&lt;/tbody&gt;&lt;/table&gt;" style="verticalAlign=top;align=left;overflow=fill;html=1;whiteSpace=wrap;" parent="1" vertex="1">
          <mxGeometry x="2205" y="80" width="170" height="140" as="geometry" />
        </mxCell>
        <mxCell id="sz-M_Azw0uYvEaWHzbE8-68" style="edgeStyle=orthogonalEdgeStyle;rounded=0;orthogonalLoop=1;jettySize=auto;html=1;entryX=0.5;entryY=0;entryDx=0;entryDy=0;" parent="1" source="sz-M_Azw0uYvEaWHzbE8-14" target="sz-M_Azw0uYvEaWHzbE8-20" edge="1">
          <mxGeometry relative="1" as="geometry" />
        </mxCell>
        <mxCell id="sz-M_Azw0uYvEaWHzbE8-14" value="&lt;div style=&quot;box-sizing:border-box;width:100%;background:#e4e4e4;padding:2px;&quot;&gt;memberSharesIdsCache&lt;/div&gt;&lt;table style=&quot;width:100%;font-size:1em;&quot; cellpadding=&quot;2&quot; cellspacing=&quot;0&quot;&gt;&lt;tbody&gt;&lt;tr&gt;&lt;td&gt;PK&lt;br&gt;FK1&lt;/td&gt;&lt;td&gt;id (INT)&lt;br&gt;memberSharesId (INT)&lt;br&gt;&lt;/td&gt;&lt;/tr&gt;&lt;tr&gt;&lt;td&gt;&lt;br&gt;&lt;/td&gt;&lt;td&gt;idNumber (TEXT)&lt;/td&gt;&lt;/tr&gt;&lt;tr&gt;&lt;td&gt;&lt;/td&gt;&lt;td&gt;claimed (INT)&lt;br&gt;active (INT)&lt;br&gt;createdAt (TIMESTAMP)&lt;br&gt;updatedAt (TIMESTAMP)&lt;br&gt;&lt;br&gt;&lt;/td&gt;&lt;/tr&gt;&lt;/tbody&gt;&lt;/table&gt;" style="verticalAlign=top;align=left;overflow=fill;html=1;whiteSpace=wrap;" parent="1" vertex="1">
          <mxGeometry x="1748.5" y="1251" width="180" height="140" as="geometry" />
        </mxCell>
        <mxCell id="sz-M_Azw0uYvEaWHzbE8-59" style="edgeStyle=orthogonalEdgeStyle;rounded=0;orthogonalLoop=1;jettySize=auto;html=1;" parent="1" source="sz-M_Azw0uYvEaWHzbE8-15" target="sz-M_Azw0uYvEaWHzbE8-26" edge="1">
          <mxGeometry relative="1" as="geometry" />
        </mxCell>
        <mxCell id="sz-M_Azw0uYvEaWHzbE8-60" style="edgeStyle=orthogonalEdgeStyle;rounded=0;orthogonalLoop=1;jettySize=auto;html=1;entryX=0;entryY=0.5;entryDx=0;entryDy=0;" parent="1" source="sz-M_Azw0uYvEaWHzbE8-15" target="sz-M_Azw0uYvEaWHzbE8-22" edge="1">
          <mxGeometry relative="1" as="geometry" />
        </mxCell>
        <mxCell id="sz-M_Azw0uYvEaWHzbE8-64" style="edgeStyle=orthogonalEdgeStyle;rounded=0;orthogonalLoop=1;jettySize=auto;html=1;" parent="1" source="sz-M_Azw0uYvEaWHzbE8-15" target="sz-M_Azw0uYvEaWHzbE8-19" edge="1">
          <mxGeometry relative="1" as="geometry" />
        </mxCell>
        <mxCell id="sz-M_Azw0uYvEaWHzbE8-65" style="edgeStyle=orthogonalEdgeStyle;rounded=0;orthogonalLoop=1;jettySize=auto;html=1;" parent="1" source="sz-M_Azw0uYvEaWHzbE8-15" target="sz-M_Azw0uYvEaWHzbE8-17" edge="1">
          <mxGeometry relative="1" as="geometry">
            <Array as="points">
              <mxPoint x="2280" y="705" />
            </Array>
          </mxGeometry>
        </mxCell>
        <mxCell id="sz-M_Azw0uYvEaWHzbE8-15" value="&lt;div style=&quot;box-sizing:border-box;width:100%;background:#e4e4e4;padding:2px;&quot;&gt;member&lt;/div&gt;&lt;table style=&quot;width:100%;font-size:1em;&quot; cellpadding=&quot;2&quot; cellspacing=&quot;0&quot;&gt;&lt;tbody&gt;&lt;tr&gt;&lt;td&gt;PK&lt;br&gt;FK1&lt;/td&gt;&lt;td&gt;id (INT)&lt;br&gt;memberIdNumber (TEXT)&lt;/td&gt;&lt;/tr&gt;&lt;tr&gt;&lt;td&gt;&lt;br&gt;&lt;/td&gt;&lt;td&gt;firstName (TEXT)&lt;/td&gt;&lt;/tr&gt;&lt;tr&gt;&lt;td&gt;&lt;br&gt;&lt;/td&gt;&lt;td&gt;lastName (TEXT)&lt;br&gt;otherName (TEXT)&lt;br&gt;gender (TEXT)&lt;br&gt;title (TEXT)&lt;br&gt;maritalStatus (TEXT)&lt;br&gt;dateOfBirth (TEXT)&lt;br&gt;nationalId (TEXT)&lt;br&gt;utilityBillType (TEXT)&lt;br&gt;utilityBillTypeNumber (TEXT)&lt;br&gt;dateJoined (TEXT)&lt;br&gt;active (INT)&lt;br&gt;createdAt (TIMESTAMP)&lt;br&gt;updatedAt (TIMESTAMP)&lt;br&gt;&lt;br&gt;&lt;/td&gt;&lt;/tr&gt;&lt;/tbody&gt;&lt;/table&gt;" style="verticalAlign=top;align=left;overflow=fill;html=1;whiteSpace=wrap;" parent="1" vertex="1">
          <mxGeometry x="2180" y="270" width="220" height="270" as="geometry" />
        </mxCell>
        <mxCell id="sz-M_Azw0uYvEaWHzbE8-17" value="&lt;div style=&quot;box-sizing:border-box;width:100%;background:#e4e4e4;padding:2px;&quot;&gt;memberContact&lt;/div&gt;&lt;table style=&quot;width:100%;font-size:1em;&quot; cellpadding=&quot;2&quot; cellspacing=&quot;0&quot;&gt;&lt;tbody&gt;&lt;tr&gt;&lt;td&gt;PK&lt;br&gt;FK1&lt;/td&gt;&lt;td&gt;id (INT)&lt;br&gt;memberId (INT)&lt;/td&gt;&lt;/tr&gt;&lt;tr&gt;&lt;td&gt;&lt;/td&gt;&lt;td&gt;postalAddress (TEXT)&lt;br&gt;residentialAddress (TEXT)&lt;br&gt;email (TEXT)&lt;br&gt;homeVillage (TEXT)&lt;br&gt;homeTraditionalAuthority (TEXT)&lt;br&gt;homeDistrict (TEXT)&lt;br&gt;active (INT)&lt;br&gt;createdAt (TIMESTAMP)&lt;br&gt;updatedAt (TIMESTAMP)&lt;br&gt;&lt;br&gt;&lt;/td&gt;&lt;/tr&gt;&lt;/tbody&gt;&lt;/table&gt;" style="verticalAlign=top;align=left;overflow=fill;html=1;whiteSpace=wrap;" parent="1" vertex="1">
          <mxGeometry x="1790" y="610" width="210" height="190" as="geometry" />
        </mxCell>
        <mxCell id="sz-M_Azw0uYvEaWHzbE8-19" value="&lt;div style=&quot;box-sizing:border-box;width:100%;background:#e4e4e4;padding:2px;&quot;&gt;memberDependant&lt;/div&gt;&lt;table style=&quot;width:100%;font-size:1em;&quot; cellpadding=&quot;2&quot; cellspacing=&quot;0&quot;&gt;&lt;tbody&gt;&lt;tr&gt;&lt;td&gt;PK&lt;br&gt;FK1&lt;/td&gt;&lt;td&gt;id (INT)&lt;br&gt;memberId (INT)&lt;/td&gt;&lt;/tr&gt;&lt;tr&gt;&lt;td&gt;&lt;br&gt;&lt;/td&gt;&lt;td&gt;name (TEXT)&lt;br&gt;phoneNumber (TEXT)&lt;br&gt;address (TEXT)&lt;br&gt;percentage (REAL)&lt;br&gt;isNominee (INT)&lt;br&gt;relationship (TEXT)&lt;br&gt;active (INT)&lt;br&gt;createdAt (TIMESTAMP)&lt;br&gt;updatedAt (TIMESTAMP)&lt;/td&gt;&lt;/tr&gt;&lt;tr&gt;&lt;td&gt;&lt;/td&gt;&lt;td&gt;&lt;br&gt;&lt;br&gt;&lt;/td&gt;&lt;/tr&gt;&lt;/tbody&gt;&lt;/table&gt;" style="verticalAlign=top;align=left;overflow=fill;html=1;whiteSpace=wrap;" parent="1" vertex="1">
          <mxGeometry x="1800" y="307.5" width="180" height="195" as="geometry" />
        </mxCell>
        <mxCell id="sz-M_Azw0uYvEaWHzbE8-71" style="edgeStyle=orthogonalEdgeStyle;rounded=0;orthogonalLoop=1;jettySize=auto;html=1;entryX=0;entryY=0.5;entryDx=0;entryDy=0;" parent="1" source="sz-M_Azw0uYvEaWHzbE8-20" target="sz-M_Azw0uYvEaWHzbE8-70" edge="1">
          <mxGeometry relative="1" as="geometry" />
        </mxCell>
        <mxCell id="sz-M_Azw0uYvEaWHzbE8-20" value="&lt;div style=&quot;box-sizing:border-box;width:100%;background:#e4e4e4;padding:2px;&quot;&gt;memberShares&lt;/div&gt;&lt;table style=&quot;width:100%;font-size:1em;&quot; cellpadding=&quot;2&quot; cellspacing=&quot;0&quot;&gt;&lt;tbody&gt;&lt;tr&gt;&lt;td&gt;PK&lt;br&gt;FK1&lt;br&gt;FK2&lt;/td&gt;&lt;td&gt;id (INT)&lt;br&gt;memberId (INT)&lt;br&gt;memberSharesIdNumber (TEXT)&lt;/td&gt;&lt;/tr&gt;&lt;tr&gt;&lt;td&gt;&lt;br&gt;&lt;/td&gt;&lt;td&gt;monthlyPremium (REAL)&lt;br&gt;totalValue (REAL)&lt;br&gt;numberOfShares (INT)&lt;br&gt;active (INT)&lt;br&gt;createdAt (TIMESTAMP)&lt;br&gt;updatedAt (TIMESTAMP)&lt;/td&gt;&lt;/tr&gt;&lt;tr&gt;&lt;td&gt;&lt;/td&gt;&lt;td&gt;&lt;br&gt;&lt;br&gt;&lt;/td&gt;&lt;/tr&gt;&lt;/tbody&gt;&lt;/table&gt;" style="verticalAlign=top;align=left;overflow=fill;html=1;whiteSpace=wrap;" parent="1" vertex="1">
          <mxGeometry x="1733.5" y="1450" width="210" height="165" as="geometry" />
        </mxCell>
        <mxCell id="sz-M_Azw0uYvEaWHzbE8-21" value="&lt;div style=&quot;box-sizing:border-box;width:100%;background:#e4e4e4;padding:2px;&quot;&gt;memberLoan&lt;/div&gt;&lt;table style=&quot;width:100%;font-size:1em;&quot; cellpadding=&quot;2&quot; cellspacing=&quot;0&quot;&gt;&lt;tbody&gt;&lt;tr&gt;&lt;td&gt;PK&lt;br&gt;FK1&lt;br&gt;FK2&lt;/td&gt;&lt;td&gt;id (INT)&lt;br&gt;memberId (INT)&lt;br&gt;memberSavingId (INT)&lt;/td&gt;&lt;/tr&gt;&lt;tr&gt;&lt;td&gt;&lt;br&gt;&lt;/td&gt;&lt;td&gt;loanAmount (REAL)&lt;br&gt;repaymentPeriodInMonths (INT)&lt;br&gt;loanPurpose (TEXT)&lt;br&gt;loanType (TEXT)&lt;br&gt;loanStartDate (TEXT)&lt;br&gt;loanDueDate (TEXT)&lt;br&gt;monthlyInstalments (REAL)&lt;br&gt;interestRate (REAL)&lt;br&gt;amountPaid (REAL)&lt;br&gt;balanceAmount (REAL)&lt;br&gt;active (INT)&lt;br&gt;createdAt (TIMESTAMP)&lt;br&gt;updatedAt (TIMESTAMP)&lt;/td&gt;&lt;/tr&gt;&lt;tr&gt;&lt;td&gt;&lt;/td&gt;&lt;td&gt;&lt;br&gt;&lt;br&gt;&lt;/td&gt;&lt;/tr&gt;&lt;/tbody&gt;&lt;/table&gt;" style="verticalAlign=top;align=left;overflow=fill;html=1;whiteSpace=wrap;" parent="1" vertex="1">
          <mxGeometry x="470" y="1610" width="210" height="270" as="geometry" />
        </mxCell>
        <mxCell id="sz-M_Azw0uYvEaWHzbE8-61" style="edgeStyle=orthogonalEdgeStyle;rounded=0;orthogonalLoop=1;jettySize=auto;html=1;" parent="1" source="sz-M_Azw0uYvEaWHzbE8-22" target="sz-M_Azw0uYvEaWHzbE8-33" edge="1">
          <mxGeometry relative="1" as="geometry" />
        </mxCell>
        <mxCell id="sz-M_Azw0uYvEaWHzbE8-62" style="edgeStyle=orthogonalEdgeStyle;rounded=0;orthogonalLoop=1;jettySize=auto;html=1;entryX=0.5;entryY=0;entryDx=0;entryDy=0;" parent="1" source="sz-M_Azw0uYvEaWHzbE8-22" target="sz-M_Azw0uYvEaWHzbE8-24" edge="1">
          <mxGeometry relative="1" as="geometry">
            <Array as="points">
              <mxPoint x="2738" y="620" />
              <mxPoint x="2495" y="620" />
            </Array>
          </mxGeometry>
        </mxCell>
        <mxCell id="sz-M_Azw0uYvEaWHzbE8-22" value="&lt;div style=&quot;box-sizing:border-box;width:100%;background:#e4e4e4;padding:2px;&quot;&gt;memberBusiness&lt;/div&gt;&lt;table style=&quot;width:100%;font-size:1em;&quot; cellpadding=&quot;2&quot; cellspacing=&quot;0&quot;&gt;&lt;tbody&gt;&lt;tr&gt;&lt;td&gt;PK&lt;br&gt;FK1&lt;br&gt;&lt;/td&gt;&lt;td&gt;id (INT)&lt;br&gt;memberLoanId (INT)&lt;br&gt;&lt;/td&gt;&lt;/tr&gt;&lt;tr&gt;&lt;td&gt;&lt;br&gt;&lt;/td&gt;&lt;td&gt;yearsInBusiness (INT)&lt;br&gt;businessNature (TEXT)&lt;br&gt;businessName (TEXT)&lt;br&gt;tradingArea (TEXT)&lt;br&gt;active (INT)&lt;br&gt;createdAt (TIMESTAMP)&lt;br&gt;updatedAt (TIMESTAMP)&lt;/td&gt;&lt;/tr&gt;&lt;tr&gt;&lt;td&gt;&lt;/td&gt;&lt;td&gt;&lt;br&gt;&lt;br&gt;&lt;/td&gt;&lt;/tr&gt;&lt;/tbody&gt;&lt;/table&gt;" style="verticalAlign=top;align=left;overflow=fill;html=1;whiteSpace=wrap;" parent="1" vertex="1">
          <mxGeometry x="2650" y="417.5" width="175" height="160" as="geometry" />
        </mxCell>
        <mxCell id="sz-M_Azw0uYvEaWHzbE8-23" value="&lt;div style=&quot;box-sizing:border-box;width:100%;background:#e4e4e4;padding:2px;&quot;&gt;memberLastYearBusinessHistory&lt;/div&gt;&lt;table style=&quot;width:100%;font-size:1em;&quot; cellpadding=&quot;2&quot; cellspacing=&quot;0&quot;&gt;&lt;tbody&gt;&lt;tr&gt;&lt;td&gt;PK&lt;br&gt;FK1&lt;/td&gt;&lt;td&gt;id (INT)&lt;br&gt;memberBusinessId (INT)&lt;/td&gt;&lt;/tr&gt;&lt;tr&gt;&lt;td&gt;&lt;br&gt;&lt;/td&gt;&lt;td&gt;financialYear (INT)&lt;br&gt;totalIncome (REAL)&lt;br&gt;totalCostOfGoods (REAL)&lt;br&gt;employeeWages (REAL)&lt;br&gt;ownSalary (REAL)&lt;br&gt;transport (REAL)&lt;br&gt;loanInterest (REAL)&lt;br&gt;utilities (REAL)&lt;br&gt;rentals (REAL)&lt;br&gt;otherCosts (REAL)&lt;br&gt;totalCosts (REAL)&lt;br&gt;netProfitLoss (REAL)&lt;br&gt;description (TEXT)&lt;br&gt;active (INT)&lt;br&gt;createdAt (TIMESTAMP)&lt;br&gt;updatedAt (TIMESTAMP)&lt;/td&gt;&lt;/tr&gt;&lt;tr&gt;&lt;td&gt;&lt;/td&gt;&lt;td&gt;&lt;br&gt;&lt;br&gt;&lt;/td&gt;&lt;/tr&gt;&lt;/tbody&gt;&lt;/table&gt;" style="verticalAlign=top;align=left;overflow=fill;html=1;whiteSpace=wrap;" parent="1" vertex="1">
          <mxGeometry x="2920" y="657.5" width="200" height="300" as="geometry" />
        </mxCell>
        <mxCell id="sz-M_Azw0uYvEaWHzbE8-24" value="&lt;div style=&quot;box-sizing:border-box;width:100%;background:#e4e4e4;padding:2px;&quot;&gt;memberNextYearBusinessProjection&lt;/div&gt;&lt;table style=&quot;width:100%;font-size:1em;&quot; cellpadding=&quot;2&quot; cellspacing=&quot;0&quot;&gt;&lt;tbody&gt;&lt;tr&gt;&lt;td&gt;PK&lt;br&gt;FK1&lt;/td&gt;&lt;td&gt;id (INT)&lt;br&gt;memberBusinessId (INT)&lt;/td&gt;&lt;/tr&gt;&lt;tr&gt;&lt;td&gt;&lt;br&gt;&lt;/td&gt;&lt;td&gt;financialYear (INT)&lt;br&gt;totalIncome (REAL)&lt;br&gt;totalCostOfGoods (REAL)&lt;br&gt;employeeWages (REAL)&lt;br&gt;ownSalary (REAL)&lt;br&gt;transport (REAL)&lt;br&gt;loanInterest (REAL)&lt;br&gt;utilities (REAL)&lt;br&gt;rentals (REAL)&lt;br&gt;otherCosts (REAL)&lt;br&gt;totalCosts (REAL)&lt;br&gt;netProfitLoss (REAL)&lt;br&gt;description (TEXT)&lt;br&gt;active (INT)&lt;br&gt;createdAt (TIMESTAMP)&lt;br&gt;updatedAt (TIMESTAMP)&lt;/td&gt;&lt;/tr&gt;&lt;tr&gt;&lt;td&gt;&lt;/td&gt;&lt;td&gt;&lt;br&gt;&lt;br&gt;&lt;/td&gt;&lt;/tr&gt;&lt;/tbody&gt;&lt;/table&gt;" style="verticalAlign=top;align=left;overflow=fill;html=1;whiteSpace=wrap;" parent="1" vertex="1">
          <mxGeometry x="2390" y="657.5" width="210" height="300" as="geometry" />
        </mxCell>
        <mxCell id="sz-M_Azw0uYvEaWHzbE8-58" style="edgeStyle=orthogonalEdgeStyle;rounded=0;orthogonalLoop=1;jettySize=auto;html=1;exitX=1;exitY=0.5;exitDx=0;exitDy=0;entryX=0;entryY=0.5;entryDx=0;entryDy=0;" parent="1" source="sz-M_Azw0uYvEaWHzbE8-26" target="sz-M_Azw0uYvEaWHzbE8-32" edge="1">
          <mxGeometry relative="1" as="geometry" />
        </mxCell>
        <mxCell id="sz-M_Azw0uYvEaWHzbE8-26" value="&lt;div style=&quot;box-sizing:border-box;width:100%;background:#e4e4e4;padding:2px;&quot;&gt;memberOccupation&lt;/div&gt;&lt;table style=&quot;width:100%;font-size:1em;&quot; cellpadding=&quot;2&quot; cellspacing=&quot;0&quot;&gt;&lt;tbody&gt;&lt;tr&gt;&lt;td&gt;PK&lt;br&gt;FK1&lt;/td&gt;&lt;td&gt;id (INT)&lt;br&gt;memberLoanId (INT)&lt;/td&gt;&lt;/tr&gt;&lt;tr&gt;&lt;td&gt;&lt;/td&gt;&lt;td&gt;employeeName (TEXT)&lt;br&gt;employerAddress (TEXT)&lt;br&gt;employerPhone (TEXT)&lt;br&gt;jobTitle (TEXT)&lt;br&gt;periodEmploymentInMonths (INT)&lt;br&gt;grossPay (REAL)&lt;br&gt;netPay (REAL)&lt;br&gt;highestQualification (TEXT)&lt;br&gt;active (INT)&lt;br&gt;createdAt (TIMESTAMP)&lt;br&gt;updatedAt (TIMESTAMP)&lt;br&gt;&lt;br&gt;&lt;/td&gt;&lt;/tr&gt;&lt;/tbody&gt;&lt;/table&gt;" style="verticalAlign=top;align=left;overflow=fill;html=1;whiteSpace=wrap;" parent="1" vertex="1">
          <mxGeometry x="2650" y="90" width="218" height="220" as="geometry" />
        </mxCell>
        <mxCell id="sz-M_Azw0uYvEaWHzbE8-94" style="edgeStyle=orthogonalEdgeStyle;rounded=0;orthogonalLoop=1;jettySize=auto;html=1;entryX=0.5;entryY=0;entryDx=0;entryDy=0;" parent="1" source="sz-M_Azw0uYvEaWHzbE8-28" target="sz-M_Azw0uYvEaWHzbE8-45" edge="1">
          <mxGeometry relative="1" as="geometry" />
        </mxCell>
        <mxCell id="sz-M_Azw0uYvEaWHzbE8-28" value="&lt;div style=&quot;box-sizing:border-box;width:100%;background:#e4e4e4;padding:2px;&quot;&gt;memberLoanApproval&lt;/div&gt;&lt;table style=&quot;width:100%;font-size:1em;&quot; cellpadding=&quot;2&quot; cellspacing=&quot;0&quot;&gt;&lt;tbody&gt;&lt;tr&gt;&lt;td&gt;PK&lt;br&gt;FK1&lt;/td&gt;&lt;td&gt;id (INT)&lt;br&gt;memberLoanId (INT)&lt;/td&gt;&lt;/tr&gt;&lt;tr&gt;&lt;td&gt;&lt;br&gt;&lt;/td&gt;&lt;td&gt;loanStatus (TEXT)&lt;/td&gt;&lt;/tr&gt;&lt;tr&gt;&lt;td&gt;&lt;/td&gt;&lt;td&gt;amountRecommended (REAL)&lt;br&gt;approvedBy (TEXT)&lt;br&gt;dateOfApproval (TEXT)&lt;br&gt;verifiedBy (TEXT)&lt;br&gt;dateVerified (TEXT)&lt;br&gt;denialOrPartialReason (TEXT)&lt;br&gt;active (INT)&lt;br&gt;createdAt (TIMESTAMP)&lt;br&gt;updatedAt (TIMESTAMP)&lt;br&gt;&lt;br&gt;&lt;/td&gt;&lt;/tr&gt;&lt;/tbody&gt;&lt;/table&gt;" style="verticalAlign=top;align=left;overflow=fill;html=1;whiteSpace=wrap;" parent="1" vertex="1">
          <mxGeometry x="805" y="1300" width="210" height="210" as="geometry" />
        </mxCell>
        <mxCell id="sz-M_Azw0uYvEaWHzbE8-29" value="&lt;div style=&quot;box-sizing:border-box;width:100%;background:#e4e4e4;padding:2px;&quot;&gt;memberLoanLiability&lt;/div&gt;&lt;table style=&quot;width:100%;font-size:1em;&quot; cellpadding=&quot;2&quot; cellspacing=&quot;0&quot;&gt;&lt;tbody&gt;&lt;tr&gt;&lt;td&gt;PK&lt;br&gt;FK1&lt;/td&gt;&lt;td&gt;id (INT)&lt;br&gt;memberLoanId (INT)&lt;/td&gt;&lt;/tr&gt;&lt;tr&gt;&lt;td&gt;&lt;br&gt;&lt;/td&gt;&lt;td&gt;description (TEXT)&lt;/td&gt;&lt;/tr&gt;&lt;tr&gt;&lt;td&gt;&lt;/td&gt;&lt;td&gt;value (REAL)&lt;br&gt;active (INT)&lt;br&gt;createdAt (TIMESTAMP)&lt;br&gt;updatedAt (TIMESTAMP)&lt;br&gt;&lt;br&gt;&lt;/td&gt;&lt;/tr&gt;&lt;/tbody&gt;&lt;/table&gt;" style="verticalAlign=top;align=left;overflow=fill;html=1;whiteSpace=wrap;" parent="1" vertex="1">
          <mxGeometry x="105" y="1692.5" width="170" height="140" as="geometry" />
        </mxCell>
        <mxCell id="sz-M_Azw0uYvEaWHzbE8-93" style="edgeStyle=orthogonalEdgeStyle;rounded=0;orthogonalLoop=1;jettySize=auto;html=1;entryX=0;entryY=0.75;entryDx=0;entryDy=0;" parent="1" source="sz-M_Azw0uYvEaWHzbE8-31" target="sz-M_Azw0uYvEaWHzbE8-21" edge="1">
          <mxGeometry relative="1" as="geometry" />
        </mxCell>
        <mxCell id="sz-M_Azw0uYvEaWHzbE8-31" value="&lt;div style=&quot;box-sizing:border-box;width:100%;background:#e4e4e4;padding:2px;&quot;&gt;memberLoanWitness&lt;/div&gt;&lt;table style=&quot;width:100%;font-size:1em;&quot; cellpadding=&quot;2&quot; cellspacing=&quot;0&quot;&gt;&lt;tbody&gt;&lt;tr&gt;&lt;td&gt;PK&lt;br&gt;FK1&lt;/td&gt;&lt;td&gt;id (INT)&lt;br&gt;memberLoanId (INT)&lt;/td&gt;&lt;/tr&gt;&lt;tr&gt;&lt;td&gt;&lt;br&gt;&lt;/td&gt;&lt;td&gt;witnessName (TEXT)&lt;/td&gt;&lt;/tr&gt;&lt;tr&gt;&lt;td&gt;&lt;/td&gt;&lt;td&gt;telephone (TEXT)&lt;br&gt;address (TEXT)&lt;br&gt;date (TEXT)&lt;br&gt;active (INT)&lt;br&gt;createdAt (TIMESTAMP)&lt;br&gt;updatedAt (TIMESTAMP)&lt;br&gt;&lt;br&gt;&lt;/td&gt;&lt;/tr&gt;&lt;/tbody&gt;&lt;/table&gt;" style="verticalAlign=top;align=left;overflow=fill;html=1;whiteSpace=wrap;" parent="1" vertex="1">
          <mxGeometry x="105" y="1985" width="170" height="170" as="geometry" />
        </mxCell>
        <mxCell id="sz-M_Azw0uYvEaWHzbE8-32" value="&lt;div style=&quot;box-sizing:border-box;width:100%;background:#e4e4e4;padding:2px;&quot;&gt;memberOccupationVerification&lt;/div&gt;&lt;table style=&quot;width:100%;font-size:1em;&quot; cellpadding=&quot;2&quot; cellspacing=&quot;0&quot;&gt;&lt;tbody&gt;&lt;tr&gt;&lt;td&gt;PK&lt;br&gt;FK1&lt;/td&gt;&lt;td&gt;id (INT)&lt;br&gt;memberOccupationId (INT)&lt;/td&gt;&lt;/tr&gt;&lt;tr&gt;&lt;td&gt;&lt;br&gt;&lt;/td&gt;&lt;td&gt;jobVerified (TEXT)&lt;/td&gt;&lt;/tr&gt;&lt;tr&gt;&lt;td&gt;&lt;/td&gt;&lt;td&gt;grossVerified (TEXT)&lt;br&gt;netVerified (TEXT)&lt;br&gt;active (INT)&lt;br&gt;createdAt (TIMESTAMP)&lt;br&gt;updatedAt (TIMESTAMP)&lt;br&gt;&lt;br&gt;&lt;/td&gt;&lt;/tr&gt;&lt;/tbody&gt;&lt;/table&gt;" style="verticalAlign=top;align=left;overflow=fill;html=1;whiteSpace=wrap;" parent="1" vertex="1">
          <mxGeometry x="2960" y="125" width="190" height="150" as="geometry" />
        </mxCell>
        <mxCell id="sz-M_Azw0uYvEaWHzbE8-33" value="&lt;div style=&quot;box-sizing:border-box;width:100%;background:#e4e4e4;padding:2px;&quot;&gt;memberBusinessVerification&lt;/div&gt;&lt;table style=&quot;width:100%;font-size:1em;&quot; cellpadding=&quot;2&quot; cellspacing=&quot;0&quot;&gt;&lt;tbody&gt;&lt;tr&gt;&lt;td&gt;PK&lt;br&gt;FK1&lt;/td&gt;&lt;td&gt;id (INT)&lt;br&gt;memberBusinessId (INT)&lt;/td&gt;&lt;/tr&gt;&lt;tr&gt;&lt;td&gt;&lt;br&gt;&lt;/td&gt;&lt;td&gt;businessVerified (TEXT)&lt;/td&gt;&lt;/tr&gt;&lt;tr&gt;&lt;td&gt;&lt;/td&gt;&lt;td&gt;grossIncomeVerified (TEXT)&lt;br&gt;netIncomeVerified (TEXT)&lt;br&gt;active (INT)&lt;br&gt;createdAt (TIMESTAMP)&lt;br&gt;updatedAt (TIMESTAMP)&lt;br&gt;&lt;br&gt;&lt;/td&gt;&lt;/tr&gt;&lt;/tbody&gt;&lt;/table&gt;" style="verticalAlign=top;align=left;overflow=fill;html=1;whiteSpace=wrap;" parent="1" vertex="1">
          <mxGeometry x="2920" y="422.5" width="200" height="150" as="geometry" />
        </mxCell>
        <mxCell id="sz-M_Azw0uYvEaWHzbE8-34" value="&lt;div style=&quot;box-sizing:border-box;width:100%;background:#e4e4e4;padding:2px;&quot;&gt;insuranceProvider&lt;/div&gt;&lt;table style=&quot;width:100%;font-size:1em;&quot; cellpadding=&quot;2&quot; cellspacing=&quot;0&quot;&gt;&lt;tbody&gt;&lt;tr&gt;&lt;td&gt;PK&lt;br&gt;&lt;/td&gt;&lt;td&gt;id (INT)&lt;br&gt;&lt;/td&gt;&lt;/tr&gt;&lt;tr&gt;&lt;td&gt;&lt;br&gt;&lt;/td&gt;&lt;td&gt;name (TEXT)&lt;/td&gt;&lt;/tr&gt;&lt;tr&gt;&lt;td&gt;&lt;/td&gt;&lt;td&gt;address (TEXT)&lt;br&gt;phoneNumber (TEXT)&lt;br&gt;contactPerson (TEXT)&lt;br&gt;active (INT)&lt;br&gt;createdAt (TIMESTAMP)&lt;br&gt;updatedAt (TIMESTAMP)&lt;br&gt;&lt;br&gt;&lt;/td&gt;&lt;/tr&gt;&lt;/tbody&gt;&lt;/table&gt;" style="verticalAlign=top;align=left;overflow=fill;html=1;whiteSpace=wrap;" parent="1" vertex="1">
          <mxGeometry x="1290" y="2005" width="170" height="150" as="geometry" />
        </mxCell>
        <mxCell id="sz-M_Azw0uYvEaWHzbE8-85" style="edgeStyle=orthogonalEdgeStyle;rounded=0;orthogonalLoop=1;jettySize=auto;html=1;entryX=0;entryY=0.5;entryDx=0;entryDy=0;" parent="1" source="sz-M_Azw0uYvEaWHzbE8-35" target="sz-M_Azw0uYvEaWHzbE8-34" edge="1">
          <mxGeometry relative="1" as="geometry" />
        </mxCell>
        <mxCell id="sz-M_Azw0uYvEaWHzbE8-35" value="&lt;div style=&quot;box-sizing:border-box;width:100%;background:#e4e4e4;padding:2px;&quot;&gt;memberLoanInsurance&lt;/div&gt;&lt;table style=&quot;width:100%;font-size:1em;&quot; cellpadding=&quot;2&quot; cellspacing=&quot;0&quot;&gt;&lt;tbody&gt;&lt;tr&gt;&lt;td&gt;PK&lt;br&gt;FK1&lt;br&gt;FK2&lt;/td&gt;&lt;td&gt;id (INT)&lt;br&gt;memberLoanId (INT)&lt;br&gt;insuranceProviderId (INT)&lt;/td&gt;&lt;/tr&gt;&lt;tr&gt;&lt;td&gt;&lt;br&gt;&lt;/td&gt;&lt;td&gt;date (TEXT)&lt;/td&gt;&lt;/tr&gt;&lt;tr&gt;&lt;td&gt;&lt;/td&gt;&lt;td&gt;amount (REAL)&lt;br&gt;active (INT)&lt;br&gt;createdAt (TIMESTAMP)&lt;br&gt;updatedAt (TIMESTAMP)&lt;br&gt;&lt;br&gt;&lt;/td&gt;&lt;/tr&gt;&lt;/tbody&gt;&lt;/table&gt;" style="verticalAlign=top;align=left;overflow=fill;html=1;whiteSpace=wrap;" parent="1" vertex="1">
          <mxGeometry x="960" y="2005" width="180" height="150" as="geometry" />
        </mxCell>
        <mxCell id="sz-M_Azw0uYvEaWHzbE8-86" style="edgeStyle=orthogonalEdgeStyle;rounded=0;orthogonalLoop=1;jettySize=auto;html=1;entryX=0.5;entryY=0;entryDx=0;entryDy=0;" parent="1" source="sz-M_Azw0uYvEaWHzbE8-37" target="sz-M_Azw0uYvEaWHzbE8-35" edge="1">
          <mxGeometry relative="1" as="geometry" />
        </mxCell>
        <mxCell id="sz-M_Azw0uYvEaWHzbE8-37" value="&lt;div style=&quot;box-sizing:border-box;width:100%;background:#e4e4e4;padding:2px;&quot;&gt;memberLoanPaymentSchedule&lt;/div&gt;&lt;table style=&quot;width:100%;font-size:1em;&quot; cellpadding=&quot;2&quot; cellspacing=&quot;0&quot;&gt;&lt;tbody&gt;&lt;tr&gt;&lt;td&gt;PK&lt;br&gt;FK1&lt;br&gt;&lt;/td&gt;&lt;td&gt;id (INT)&lt;br&gt;memberLoanId (INT)&lt;/td&gt;&lt;/tr&gt;&lt;tr&gt;&lt;td&gt;&lt;br&gt;&lt;/td&gt;&lt;td&gt;dueDate (TEXT)&lt;/td&gt;&lt;/tr&gt;&lt;tr&gt;&lt;td&gt;&lt;/td&gt;&lt;td&gt;amountDue (REAL)&lt;br&gt;paid (INT)&lt;br&gt;active (INT)&lt;br&gt;createdAt (TIMESTAMP)&lt;br&gt;updatedAt (TIMESTAMP)&lt;br&gt;&lt;br&gt;&lt;/td&gt;&lt;/tr&gt;&lt;/tbody&gt;&lt;/table&gt;" style="verticalAlign=top;align=left;overflow=fill;html=1;whiteSpace=wrap;" parent="1" vertex="1">
          <mxGeometry x="960" y="1780" width="180" height="150" as="geometry" />
        </mxCell>
        <mxCell id="sz-M_Azw0uYvEaWHzbE8-38" value="&lt;div style=&quot;box-sizing:border-box;width:100%;background:#e4e4e4;padding:2px;&quot;&gt;notification&lt;/div&gt;&lt;table style=&quot;width:100%;font-size:1em;&quot; cellpadding=&quot;2&quot; cellspacing=&quot;0&quot;&gt;&lt;tbody&gt;&lt;tr&gt;&lt;td&gt;PK&lt;br&gt;FK1&lt;br&gt;&lt;/td&gt;&lt;td&gt;id (INT)&lt;br&gt;memberId (INT)&lt;/td&gt;&lt;/tr&gt;&lt;tr&gt;&lt;td&gt;&lt;br&gt;&lt;/td&gt;&lt;td&gt;date (TEXT)&lt;/td&gt;&lt;/tr&gt;&lt;tr&gt;&lt;td&gt;&lt;/td&gt;&lt;td&gt;message (REAL)&lt;br&gt;delivered (INT)&lt;br&gt;read (INT)&lt;br&gt;active (INT)&lt;br&gt;createdAt (TIMESTAMP)&lt;br&gt;updatedAt (TIMESTAMP)&lt;br&gt;&lt;br&gt;&lt;/td&gt;&lt;/tr&gt;&lt;/tbody&gt;&lt;/table&gt;" style="verticalAlign=top;align=left;overflow=fill;html=1;whiteSpace=wrap;" parent="1" vertex="1">
          <mxGeometry x="260" y="547.5" width="180" height="170" as="geometry" />
        </mxCell>
        <mxCell id="sz-M_Azw0uYvEaWHzbE8-39" value="&lt;div style=&quot;box-sizing:border-box;width:100%;background:#e4e4e4;padding:2px;&quot;&gt;memberLoanProcessingFee&lt;/div&gt;&lt;table style=&quot;width:100%;font-size:1em;&quot; cellpadding=&quot;2&quot; cellspacing=&quot;0&quot;&gt;&lt;tbody&gt;&lt;tr&gt;&lt;td&gt;PK&lt;br&gt;FK1&lt;br&gt;&lt;/td&gt;&lt;td&gt;id (INT)&lt;br&gt;memberLoanId (INT)&lt;/td&gt;&lt;/tr&gt;&lt;tr&gt;&lt;td&gt;&lt;br&gt;&lt;/td&gt;&lt;td&gt;date (TEXT)&lt;/td&gt;&lt;/tr&gt;&lt;tr&gt;&lt;td&gt;&lt;/td&gt;&lt;td&gt;amount (REAL)&lt;br&gt;active (INT)&lt;br&gt;createdAt (TIMESTAMP)&lt;br&gt;updatedAt (TIMESTAMP)&lt;br&gt;&lt;br&gt;&lt;/td&gt;&lt;/tr&gt;&lt;/tbody&gt;&lt;/table&gt;" style="verticalAlign=top;align=left;overflow=fill;html=1;whiteSpace=wrap;" parent="1" vertex="1">
          <mxGeometry x="1110" y="1335" width="180" height="140" as="geometry" />
        </mxCell>
        <mxCell id="sz-M_Azw0uYvEaWHzbE8-40" value="&lt;div style=&quot;box-sizing:border-box;width:100%;background:#e4e4e4;padding:2px;&quot;&gt;loanServiceFee&lt;/div&gt;&lt;table style=&quot;width:100%;font-size:1em;&quot; cellpadding=&quot;2&quot; cellspacing=&quot;0&quot;&gt;&lt;tbody&gt;&lt;tr&gt;&lt;td&gt;PK&lt;/td&gt;&lt;td&gt;id (INT)&lt;/td&gt;&lt;/tr&gt;&lt;tr&gt;&lt;td&gt;&lt;br&gt;&lt;/td&gt;&lt;td&gt;name (TEXT)&lt;/td&gt;&lt;/tr&gt;&lt;tr&gt;&lt;td&gt;&lt;/td&gt;&lt;td&gt;monthlyRate (REAL)&lt;br&gt;active (INT)&lt;br&gt;createdAt (TIMESTAMP)&lt;br&gt;updatedAt (TIMESTAMP)&lt;br&gt;&lt;br&gt;&lt;/td&gt;&lt;/tr&gt;&lt;/tbody&gt;&lt;/table&gt;" style="verticalAlign=top;align=left;overflow=fill;html=1;whiteSpace=wrap;" parent="1" vertex="1">
          <mxGeometry x="170" y="170" width="180" height="130" as="geometry" />
        </mxCell>
        <mxCell id="sz-M_Azw0uYvEaWHzbE8-41" value="&lt;div style=&quot;box-sizing:border-box;width:100%;background:#e4e4e4;padding:2px;&quot;&gt;productRate&lt;/div&gt;&lt;table style=&quot;width:100%;font-size:1em;&quot; cellpadding=&quot;2&quot; cellspacing=&quot;0&quot;&gt;&lt;tbody&gt;&lt;tr&gt;&lt;td&gt;PK&lt;br&gt;FK1&lt;br&gt;FK2&lt;/td&gt;&lt;td&gt;id (INT)&lt;br&gt;loanTypeId (INT)&lt;br&gt;savingsTypeId (INT)&lt;/td&gt;&lt;/tr&gt;&lt;tr&gt;&lt;td&gt;&lt;br&gt;&lt;/td&gt;&lt;td&gt;name (TEXT)&lt;/td&gt;&lt;/tr&gt;&lt;tr&gt;&lt;td&gt;&lt;/td&gt;&lt;td&gt;monthlyRate (REAL)&lt;br&gt;active (INT)&lt;br&gt;createdAt (TIMESTAMP)&lt;br&gt;updatedAt (TIMESTAMP)&lt;br&gt;&lt;br&gt;&lt;/td&gt;&lt;/tr&gt;&lt;/tbody&gt;&lt;/table&gt;" style="verticalAlign=top;align=left;overflow=fill;html=1;whiteSpace=wrap;" parent="1" vertex="1">
          <mxGeometry x="510" y="170" width="180" height="150" as="geometry" />
        </mxCell>
        <mxCell id="sz-M_Azw0uYvEaWHzbE8-79" style="edgeStyle=orthogonalEdgeStyle;rounded=0;orthogonalLoop=1;jettySize=auto;html=1;" parent="1" source="sz-M_Azw0uYvEaWHzbE8-42" target="sz-M_Azw0uYvEaWHzbE8-21" edge="1">
          <mxGeometry relative="1" as="geometry" />
        </mxCell>
        <mxCell id="sz-M_Azw0uYvEaWHzbE8-42" value="&lt;div style=&quot;box-sizing:border-box;width:100%;background:#e4e4e4;padding:2px;&quot;&gt;loanType&lt;/div&gt;&lt;table style=&quot;width:100%;font-size:1em;&quot; cellpadding=&quot;2&quot; cellspacing=&quot;0&quot;&gt;&lt;tbody&gt;&lt;tr&gt;&lt;td&gt;PK&lt;/td&gt;&lt;td&gt;id (INT)&lt;/td&gt;&lt;/tr&gt;&lt;tr&gt;&lt;td&gt;&lt;br&gt;&lt;/td&gt;&lt;td&gt;name (TEXT)&lt;br&gt;category (TEXT)&lt;/td&gt;&lt;/tr&gt;&lt;tr&gt;&lt;td&gt;&lt;br&gt;&lt;/td&gt;&lt;td&gt;amountLimit (REAL)&lt;br&gt;periodLimitInMonths (INT)&lt;br&gt;maxInstalmentMonths (INT)&lt;br&gt;active (INT)&lt;br&gt;createdAt (TIMESTAMP)&lt;br&gt;updatedAt (TIMESTAMP)&lt;br&gt;&lt;br&gt;&lt;/td&gt;&lt;/tr&gt;&lt;/tbody&gt;&lt;/table&gt;" style="verticalAlign=top;align=left;overflow=fill;html=1;whiteSpace=wrap;" parent="1" vertex="1">
          <mxGeometry x="480" y="1285" width="190" height="170" as="geometry" />
        </mxCell>
        <mxCell id="sz-M_Azw0uYvEaWHzbE8-43" value="&lt;div style=&quot;box-sizing:border-box;width:100%;background:#e4e4e4;padding:2px;&quot;&gt;memberLoanTax&lt;/div&gt;&lt;table style=&quot;width:100%;font-size:1em;&quot; cellpadding=&quot;2&quot; cellspacing=&quot;0&quot;&gt;&lt;tbody&gt;&lt;tr&gt;&lt;td&gt;PK&lt;br&gt;FK1&lt;br&gt;&lt;/td&gt;&lt;td&gt;id (INT)&lt;br&gt;memberLoanId (INT)&lt;/td&gt;&lt;/tr&gt;&lt;tr&gt;&lt;td&gt;&lt;br&gt;&lt;/td&gt;&lt;td&gt;description (TEXT)&lt;br&gt;date (TEXT)&lt;/td&gt;&lt;/tr&gt;&lt;tr&gt;&lt;td&gt;&lt;/td&gt;&lt;td&gt;amount (REAL)&lt;br&gt;active (INT)&lt;br&gt;createdAt (TIMESTAMP)&lt;br&gt;updatedAt (TIMESTAMP)&lt;br&gt;&lt;br&gt;&lt;/td&gt;&lt;/tr&gt;&lt;/tbody&gt;&lt;/table&gt;" style="verticalAlign=top;align=left;overflow=fill;html=1;whiteSpace=wrap;" parent="1" vertex="1">
          <mxGeometry x="1340" y="1335" width="180" height="150" as="geometry" />
        </mxCell>
        <mxCell id="sz-M_Azw0uYvEaWHzbE8-89" style="edgeStyle=orthogonalEdgeStyle;rounded=0;orthogonalLoop=1;jettySize=auto;html=1;entryX=0.5;entryY=1;entryDx=0;entryDy=0;" parent="1" source="sz-M_Azw0uYvEaWHzbE8-44" target="sz-M_Azw0uYvEaWHzbE8-39" edge="1">
          <mxGeometry relative="1" as="geometry">
            <Array as="points">
              <mxPoint x="1360" y="1550" />
              <mxPoint x="1200" y="1550" />
            </Array>
          </mxGeometry>
        </mxCell>
        <mxCell id="sz-M_Azw0uYvEaWHzbE8-44" value="&lt;div style=&quot;box-sizing:border-box;width:100%;background:#e4e4e4;padding:2px;&quot;&gt;memberLoanReceipt&lt;/div&gt;&lt;table style=&quot;width:100%;font-size:1em;&quot; cellpadding=&quot;2&quot; cellspacing=&quot;0&quot;&gt;&lt;tbody&gt;&lt;tr&gt;&lt;td&gt;PK&lt;br&gt;FK1&lt;br&gt;&lt;/td&gt;&lt;td&gt;id (INT)&lt;br&gt;memberLoanPaymentScheduleId (INT)&lt;/td&gt;&lt;/tr&gt;&lt;tr&gt;&lt;td&gt;&lt;br&gt;&lt;/td&gt;&lt;td&gt;description (TEXT)&lt;br&gt;date (TEXT)&lt;/td&gt;&lt;/tr&gt;&lt;tr&gt;&lt;td&gt;&lt;/td&gt;&lt;td&gt;amount (REAL)&lt;br&gt;active (INT)&lt;br&gt;createdAt (TIMESTAMP)&lt;br&gt;updatedAt (TIMESTAMP)&lt;br&gt;&lt;br&gt;&lt;/td&gt;&lt;/tr&gt;&lt;/tbody&gt;&lt;/table&gt;" style="verticalAlign=top;align=left;overflow=fill;html=1;whiteSpace=wrap;" parent="1" vertex="1">
          <mxGeometry x="1237" y="1607.5" width="245" height="155" as="geometry" />
        </mxCell>
        <mxCell id="sz-M_Azw0uYvEaWHzbE8-95" style="edgeStyle=orthogonalEdgeStyle;rounded=0;orthogonalLoop=1;jettySize=auto;html=1;exitX=1;exitY=0.5;exitDx=0;exitDy=0;" parent="1" source="sz-M_Azw0uYvEaWHzbE8-45" target="sz-M_Azw0uYvEaWHzbE8-37" edge="1">
          <mxGeometry relative="1" as="geometry" />
        </mxCell>
        <mxCell id="sz-M_Azw0uYvEaWHzbE8-45" value="&lt;div style=&quot;box-sizing:border-box;width:100%;background:#e4e4e4;padding:2px;&quot;&gt;memberLoanDisbursement&lt;/div&gt;&lt;table style=&quot;width:100%;font-size:1em;&quot; cellpadding=&quot;2&quot; cellspacing=&quot;0&quot;&gt;&lt;tbody&gt;&lt;tr&gt;&lt;td&gt;PK&lt;br&gt;FK1&lt;br&gt;&lt;/td&gt;&lt;td&gt;id (INT)&lt;br&gt;memberLoanId (INT)&lt;/td&gt;&lt;/tr&gt;&lt;tr&gt;&lt;td&gt;&lt;br&gt;&lt;/td&gt;&lt;td&gt;description (TEXT)&lt;br&gt;date (TEXT)&lt;/td&gt;&lt;/tr&gt;&lt;tr&gt;&lt;td&gt;&lt;/td&gt;&lt;td&gt;amount (REAL)&lt;br&gt;active (INT)&lt;br&gt;createdAt (TIMESTAMP)&lt;br&gt;updatedAt (TIMESTAMP)&lt;br&gt;&lt;br&gt;&lt;/td&gt;&lt;/tr&gt;&lt;/tbody&gt;&lt;/table&gt;" style="verticalAlign=top;align=left;overflow=fill;html=1;whiteSpace=wrap;" parent="1" vertex="1">
          <mxGeometry x="815" y="1560" width="190" height="155" as="geometry" />
        </mxCell>
        <mxCell id="sz-M_Azw0uYvEaWHzbE8-69" style="edgeStyle=orthogonalEdgeStyle;rounded=0;orthogonalLoop=1;jettySize=auto;html=1;entryX=0.5;entryY=1;entryDx=0;entryDy=0;" parent="1" source="sz-M_Azw0uYvEaWHzbE8-46" target="sz-M_Azw0uYvEaWHzbE8-20" edge="1">
          <mxGeometry relative="1" as="geometry" />
        </mxCell>
        <mxCell id="sz-M_Azw0uYvEaWHzbE8-46" value="&lt;div style=&quot;box-sizing:border-box;width:100%;background:#e4e4e4;padding:2px;&quot;&gt;sharesDepositReceipt&lt;/div&gt;&lt;table style=&quot;width:100%;font-size:1em;&quot; cellpadding=&quot;2&quot; cellspacing=&quot;0&quot;&gt;&lt;tbody&gt;&lt;tr&gt;&lt;td&gt;PK&lt;br&gt;FK1&lt;br&gt;&lt;/td&gt;&lt;td&gt;id (INT)&lt;br&gt;memberSavingId (INT)&lt;/td&gt;&lt;/tr&gt;&lt;tr&gt;&lt;td&gt;&lt;br&gt;&lt;/td&gt;&lt;td&gt;description (TEXT)&lt;br&gt;date (TEXT)&lt;/td&gt;&lt;/tr&gt;&lt;tr&gt;&lt;td&gt;&lt;/td&gt;&lt;td&gt;amount (REAL)&lt;br&gt;active (INT)&lt;br&gt;createdAt (TIMESTAMP)&lt;br&gt;updatedAt (TIMESTAMP)&lt;br&gt;&lt;br&gt;&lt;/td&gt;&lt;/tr&gt;&lt;/tbody&gt;&lt;/table&gt;" style="verticalAlign=top;align=left;overflow=fill;html=1;whiteSpace=wrap;" parent="1" vertex="1">
          <mxGeometry x="1716" y="1685" width="245" height="155" as="geometry" />
        </mxCell>
        <mxCell id="sz-M_Azw0uYvEaWHzbE8-47" value="&lt;div style=&quot;box-sizing:border-box;width:100%;background:#e4e4e4;padding:2px;&quot;&gt;savingsType&lt;/div&gt;&lt;table style=&quot;width:100%;font-size:1em;&quot; cellpadding=&quot;2&quot; cellspacing=&quot;0&quot;&gt;&lt;tbody&gt;&lt;tr&gt;&lt;td&gt;PK&lt;br&gt;&lt;/td&gt;&lt;td&gt;id (INT)&lt;/td&gt;&lt;/tr&gt;&lt;tr&gt;&lt;td&gt;&lt;br&gt;&lt;/td&gt;&lt;td&gt;name (TEXT)&lt;/td&gt;&lt;/tr&gt;&lt;tr&gt;&lt;td&gt;&lt;/td&gt;&lt;td&gt;amountSize (REAL)&lt;br&gt;withdrawPattern (TEXT)&lt;br&gt;minWithdrawMonths (INT)&lt;br&gt;maxWithdrawMonths (INT)&lt;br&gt;active (INT)&lt;br&gt;createdAt (TIMESTAMP)&lt;br&gt;updatedAt (TIMESTAMP)&lt;br&gt;&lt;br&gt;&lt;/td&gt;&lt;/tr&gt;&lt;/tbody&gt;&lt;/table&gt;" style="verticalAlign=top;align=left;overflow=fill;html=1;whiteSpace=wrap;" parent="1" vertex="1">
          <mxGeometry x="3000" y="1280" width="200" height="170" as="geometry" />
        </mxCell>
        <mxCell id="sz-M_Azw0uYvEaWHzbE8-48" value="&lt;div style=&quot;box-sizing:border-box;width:100%;background:#e4e4e4;padding:2px;&quot;&gt;memberSaving&lt;/div&gt;&lt;table style=&quot;width:100%;font-size:1em;&quot; cellpadding=&quot;2&quot; cellspacing=&quot;0&quot;&gt;&lt;tbody&gt;&lt;tr&gt;&lt;td&gt;PK&lt;br&gt;FK1&lt;br&gt;FK3&lt;/td&gt;&lt;td&gt;id (INT)&lt;br&gt;memberId (INT)&lt;br&gt;savingsTypeId (INT)&lt;/td&gt;&lt;/tr&gt;&lt;tr&gt;&lt;td&gt;&lt;br&gt;&lt;/td&gt;&lt;td&gt;balance (REAL)&lt;/td&gt;&lt;/tr&gt;&lt;tr&gt;&lt;td&gt;&lt;/td&gt;&lt;td&gt;active (INT)&lt;br&gt;createdAt (TIMESTAMP)&lt;br&gt;updatedAt (TIMESTAMP)&lt;br&gt;&lt;br&gt;&lt;/td&gt;&lt;/tr&gt;&lt;/tbody&gt;&lt;/table&gt;" style="verticalAlign=top;align=left;overflow=fill;html=1;whiteSpace=wrap;" parent="1" vertex="1">
          <mxGeometry x="2790" y="1510" width="190" height="140" as="geometry" />
        </mxCell>
        <mxCell id="sz-M_Azw0uYvEaWHzbE8-73" style="edgeStyle=orthogonalEdgeStyle;rounded=0;orthogonalLoop=1;jettySize=auto;html=1;entryX=0.5;entryY=0;entryDx=0;entryDy=0;" parent="1" source="sz-M_Azw0uYvEaWHzbE8-49" target="sz-M_Azw0uYvEaWHzbE8-48" edge="1">
          <mxGeometry relative="1" as="geometry" />
        </mxCell>
        <mxCell id="sz-M_Azw0uYvEaWHzbE8-49" value="&lt;div style=&quot;box-sizing:border-box;width:100%;background:#e4e4e4;padding:2px;&quot;&gt;memberSavingInterest&lt;/div&gt;&lt;table style=&quot;width:100%;font-size:1em;&quot; cellpadding=&quot;2&quot; cellspacing=&quot;0&quot;&gt;&lt;tbody&gt;&lt;tr&gt;&lt;td&gt;PK&lt;br&gt;FK1&lt;br&gt;&lt;/td&gt;&lt;td&gt;id (INT)&lt;br&gt;memberSavingId (INT)&lt;/td&gt;&lt;/tr&gt;&lt;tr&gt;&lt;td&gt;&lt;br&gt;&lt;/td&gt;&lt;td&gt;description (TEXT)&lt;br&gt;date (TEXT)&lt;/td&gt;&lt;/tr&gt;&lt;tr&gt;&lt;td&gt;&lt;/td&gt;&lt;td&gt;amount (REAL)&lt;br&gt;active (INT)&lt;br&gt;createdAt (TIMESTAMP)&lt;br&gt;updatedAt (TIMESTAMP)&lt;br&gt;&lt;br&gt;&lt;/td&gt;&lt;/tr&gt;&lt;/tbody&gt;&lt;/table&gt;" style="verticalAlign=top;align=left;overflow=fill;html=1;whiteSpace=wrap;" parent="1" vertex="1">
          <mxGeometry x="2420" y="1287.5" width="245" height="155" as="geometry" />
        </mxCell>
        <mxCell id="sz-M_Azw0uYvEaWHzbE8-75" style="edgeStyle=orthogonalEdgeStyle;rounded=0;orthogonalLoop=1;jettySize=auto;html=1;entryX=0;entryY=0.5;entryDx=0;entryDy=0;" parent="1" source="sz-M_Azw0uYvEaWHzbE8-50" target="sz-M_Azw0uYvEaWHzbE8-48" edge="1">
          <mxGeometry relative="1" as="geometry" />
        </mxCell>
        <mxCell id="sz-M_Azw0uYvEaWHzbE8-50" value="&lt;div style=&quot;box-sizing:border-box;width:100%;background:#e4e4e4;padding:2px;&quot;&gt;memberSavingDeposit&lt;/div&gt;&lt;table style=&quot;width:100%;font-size:1em;&quot; cellpadding=&quot;2&quot; cellspacing=&quot;0&quot;&gt;&lt;tbody&gt;&lt;tr&gt;&lt;td&gt;PK&lt;br&gt;FK1&lt;br&gt;&lt;/td&gt;&lt;td&gt;id (INT)&lt;br&gt;memberSavingId (INT)&lt;/td&gt;&lt;/tr&gt;&lt;tr&gt;&lt;td&gt;&lt;br&gt;&lt;/td&gt;&lt;td&gt;description (TEXT)&lt;br&gt;date (TEXT)&lt;/td&gt;&lt;/tr&gt;&lt;tr&gt;&lt;td&gt;&lt;/td&gt;&lt;td&gt;amount (REAL)&lt;br&gt;active (INT)&lt;br&gt;createdAt (TIMESTAMP)&lt;br&gt;updatedAt (TIMESTAMP)&lt;br&gt;&lt;br&gt;&lt;/td&gt;&lt;/tr&gt;&lt;/tbody&gt;&lt;/table&gt;" style="verticalAlign=top;align=left;overflow=fill;html=1;whiteSpace=wrap;" parent="1" vertex="1">
          <mxGeometry x="2420" y="1502.5" width="245" height="155" as="geometry" />
        </mxCell>
        <mxCell id="sz-M_Azw0uYvEaWHzbE8-76" style="edgeStyle=orthogonalEdgeStyle;rounded=0;orthogonalLoop=1;jettySize=auto;html=1;entryX=0.5;entryY=1;entryDx=0;entryDy=0;" parent="1" source="sz-M_Azw0uYvEaWHzbE8-51" target="sz-M_Azw0uYvEaWHzbE8-48" edge="1">
          <mxGeometry relative="1" as="geometry" />
        </mxCell>
        <mxCell id="sz-M_Azw0uYvEaWHzbE8-51" value="&lt;div style=&quot;box-sizing:border-box;width:100%;background:#e4e4e4;padding:2px;&quot;&gt;memberSavingWithdrawal&lt;/div&gt;&lt;table style=&quot;width:100%;font-size:1em;&quot; cellpadding=&quot;2&quot; cellspacing=&quot;0&quot;&gt;&lt;tbody&gt;&lt;tr&gt;&lt;td&gt;PK&lt;br&gt;FK1&lt;br&gt;&lt;/td&gt;&lt;td&gt;id (INT)&lt;br&gt;memberSavingId (INT)&lt;/td&gt;&lt;/tr&gt;&lt;tr&gt;&lt;td&gt;&lt;br&gt;&lt;/td&gt;&lt;td&gt;description (TEXT)&lt;br&gt;date (TEXT)&lt;/td&gt;&lt;/tr&gt;&lt;tr&gt;&lt;td&gt;&lt;/td&gt;&lt;td&gt;amount (REAL)&lt;br&gt;active (INT)&lt;br&gt;createdAt (TIMESTAMP)&lt;br&gt;updatedAt (TIMESTAMP)&lt;br&gt;&lt;br&gt;&lt;/td&gt;&lt;/tr&gt;&lt;/tbody&gt;&lt;/table&gt;" style="verticalAlign=top;align=left;overflow=fill;html=1;whiteSpace=wrap;" parent="1" vertex="1">
          <mxGeometry x="2420" y="1685" width="245" height="155" as="geometry" />
        </mxCell>
        <mxCell id="sz-M_Azw0uYvEaWHzbE8-91" style="edgeStyle=orthogonalEdgeStyle;rounded=0;orthogonalLoop=1;jettySize=auto;html=1;" parent="1" source="sz-M_Azw0uYvEaWHzbE8-30" edge="1">
          <mxGeometry relative="1" as="geometry">
            <mxPoint x="470" y="1690" as="targetPoint" />
            <Array as="points">
              <mxPoint x="378" y="1495" />
              <mxPoint x="378" y="1690" />
              <mxPoint x="470" y="1690" />
            </Array>
          </mxGeometry>
        </mxCell>
        <mxCell id="sz-M_Azw0uYvEaWHzbE8-30" value="&lt;div style=&quot;box-sizing:border-box;width:100%;background:#e4e4e4;padding:2px;&quot;&gt;memberLoanSecurity&lt;/div&gt;&lt;table style=&quot;width:100%;font-size:1em;&quot; cellpadding=&quot;2&quot; cellspacing=&quot;0&quot;&gt;&lt;tbody&gt;&lt;tr&gt;&lt;td&gt;PK&lt;br&gt;FK1&lt;/td&gt;&lt;td&gt;id (INT)&lt;br&gt;memberLoanId (INT)&lt;/td&gt;&lt;/tr&gt;&lt;tr&gt;&lt;td&gt;&lt;br&gt;&lt;/td&gt;&lt;td&gt;description (TEXT)&lt;/td&gt;&lt;/tr&gt;&lt;tr&gt;&lt;td&gt;&lt;/td&gt;&lt;td&gt;value (REAL)&lt;br&gt;serialNumber (TEXT)&lt;br&gt;active (INT)&lt;br&gt;createdAt (TIMESTAMP)&lt;br&gt;updatedAt (TIMESTAMP)&lt;br&gt;&lt;br&gt;&lt;/td&gt;&lt;/tr&gt;&lt;/tbody&gt;&lt;/table&gt;" style="verticalAlign=top;align=left;overflow=fill;html=1;whiteSpace=wrap;" parent="1" vertex="1">
          <mxGeometry x="105" y="1420" width="180" height="150" as="geometry" />
        </mxCell>
        <mxCell id="sz-M_Azw0uYvEaWHzbE8-54" value="loan" style="shape=umlFrame;whiteSpace=wrap;html=1;pointerEvents=0;" parent="1" vertex="1">
          <mxGeometry x="50" y="1240" width="1520" height="1050" as="geometry" />
        </mxCell>
        <mxCell id="sz-M_Azw0uYvEaWHzbE8-57" value="member" style="shape=umlFrame;whiteSpace=wrap;html=1;pointerEvents=0;" parent="1" vertex="1">
          <mxGeometry x="1700" y="60" width="1500" height="940" as="geometry" />
        </mxCell>
        <mxCell id="sz-M_Azw0uYvEaWHzbE8-63" style="edgeStyle=orthogonalEdgeStyle;rounded=0;orthogonalLoop=1;jettySize=auto;html=1;entryX=0.47;entryY=0.008;entryDx=0;entryDy=0;entryPerimeter=0;" parent="1" source="sz-M_Azw0uYvEaWHzbE8-22" target="sz-M_Azw0uYvEaWHzbE8-23" edge="1">
          <mxGeometry relative="1" as="geometry">
            <Array as="points">
              <mxPoint x="2738" y="620" />
              <mxPoint x="3014" y="620" />
            </Array>
          </mxGeometry>
        </mxCell>
        <mxCell id="sz-M_Azw0uYvEaWHzbE8-67" value="shares" style="shape=umlFrame;whiteSpace=wrap;html=1;pointerEvents=0;" parent="1" vertex="1">
          <mxGeometry x="1680" y="1200" width="640" height="690" as="geometry" />
        </mxCell>
        <mxCell id="sz-M_Azw0uYvEaWHzbE8-70" value="&lt;div style=&quot;box-sizing:border-box;width:100%;background:#e4e4e4;padding:2px;&quot;&gt;sharesDepositWithdraw&lt;/div&gt;&lt;table style=&quot;width:100%;font-size:1em;&quot; cellpadding=&quot;2&quot; cellspacing=&quot;0&quot;&gt;&lt;tbody&gt;&lt;tr&gt;&lt;td&gt;PK&lt;br&gt;FK1&lt;br&gt;&lt;/td&gt;&lt;td&gt;id (INT)&lt;br&gt;memberSavingId (INT)&lt;/td&gt;&lt;/tr&gt;&lt;tr&gt;&lt;td&gt;&lt;br&gt;&lt;/td&gt;&lt;td&gt;description (TEXT)&lt;br&gt;date (TEXT)&lt;/td&gt;&lt;/tr&gt;&lt;tr&gt;&lt;td&gt;&lt;/td&gt;&lt;td&gt;amount (REAL)&lt;br&gt;active (INT)&lt;br&gt;createdAt (TIMESTAMP)&lt;br&gt;updatedAt (TIMESTAMP)&lt;br&gt;&lt;br&gt;&lt;/td&gt;&lt;/tr&gt;&lt;/tbody&gt;&lt;/table&gt;" style="verticalAlign=top;align=left;overflow=fill;html=1;whiteSpace=wrap;" parent="1" vertex="1">
          <mxGeometry x="2030" y="1455" width="245" height="155" as="geometry" />
        </mxCell>
        <mxCell id="sz-M_Azw0uYvEaWHzbE8-72" value="savings" style="shape=umlFrame;whiteSpace=wrap;html=1;pointerEvents=0;" parent="1" vertex="1">
          <mxGeometry x="2370" y="1200" width="900" height="690" as="geometry" />
        </mxCell>
        <mxCell id="sz-M_Azw0uYvEaWHzbE8-74" style="edgeStyle=orthogonalEdgeStyle;rounded=0;orthogonalLoop=1;jettySize=auto;html=1;entryX=0.995;entryY=0.6;entryDx=0;entryDy=0;entryPerimeter=0;" parent="1" source="sz-M_Azw0uYvEaWHzbE8-47" target="sz-M_Azw0uYvEaWHzbE8-48" edge="1">
          <mxGeometry relative="1" as="geometry">
            <Array as="points">
              <mxPoint x="3100" y="1594" />
            </Array>
          </mxGeometry>
        </mxCell>
        <mxCell id="sz-M_Azw0uYvEaWHzbE8-80" style="edgeStyle=orthogonalEdgeStyle;rounded=0;orthogonalLoop=1;jettySize=auto;html=1;entryX=-0.005;entryY=0.538;entryDx=0;entryDy=0;entryPerimeter=0;" parent="1" source="sz-M_Azw0uYvEaWHzbE8-21" target="sz-M_Azw0uYvEaWHzbE8-28" edge="1">
          <mxGeometry relative="1" as="geometry" />
        </mxCell>
        <mxCell id="sz-M_Azw0uYvEaWHzbE8-88" style="edgeStyle=orthogonalEdgeStyle;rounded=0;orthogonalLoop=1;jettySize=auto;html=1;entryX=1;entryY=0.5;entryDx=0;entryDy=0;" parent="1" source="sz-M_Azw0uYvEaWHzbE8-44" target="sz-M_Azw0uYvEaWHzbE8-37" edge="1">
          <mxGeometry relative="1" as="geometry" />
        </mxCell>
        <mxCell id="sz-M_Azw0uYvEaWHzbE8-90" style="edgeStyle=orthogonalEdgeStyle;rounded=0;orthogonalLoop=1;jettySize=auto;html=1;exitX=0.5;exitY=0;exitDx=0;exitDy=0;" parent="1" source="sz-M_Azw0uYvEaWHzbE8-44" edge="1">
          <mxGeometry relative="1" as="geometry">
            <mxPoint x="1430" y="1484" as="targetPoint" />
            <Array as="points">
              <mxPoint x="1360" y="1550" />
              <mxPoint x="1430" y="1550" />
            </Array>
          </mxGeometry>
        </mxCell>
        <mxCell id="sz-M_Azw0uYvEaWHzbE8-92" style="edgeStyle=orthogonalEdgeStyle;rounded=0;orthogonalLoop=1;jettySize=auto;html=1;entryX=0.01;entryY=0.563;entryDx=0;entryDy=0;entryPerimeter=0;" parent="1" source="sz-M_Azw0uYvEaWHzbE8-29" target="sz-M_Azw0uYvEaWHzbE8-21" edge="1">
          <mxGeometry relative="1" as="geometry" />
        </mxCell>
        <mxCell id="sz-M_Azw0uYvEaWHzbE8-97" value="user" style="shape=umlFrame;whiteSpace=wrap;html=1;pointerEvents=0;" parent="1" vertex="1">
          <mxGeometry x="1084.5" y="70" width="550" height="190" as="geometry" />
        </mxCell>
        <mxCell id="sz-M_Azw0uYvEaWHzbE8-98" value="finance" style="shape=umlFrame;whiteSpace=wrap;html=1;pointerEvents=0;" parent="1" vertex="1">
          <mxGeometry x="1020" y="350" width="620" height="770" as="geometry" />
        </mxCell>
        <mxCell id="sz-M_Azw0uYvEaWHzbE8-99" value="&lt;div style=&quot;box-sizing:border-box;width:100%;background:#e4e4e4;padding:2px;&quot;&gt;accountStatement&lt;/div&gt;&lt;table style=&quot;width:100%;font-size:1em;&quot; cellpadding=&quot;2&quot; cellspacing=&quot;0&quot;&gt;&lt;tbody&gt;&lt;tr&gt;&lt;td&gt;PK&lt;br&gt;FK1&lt;br&gt;&lt;/td&gt;&lt;td&gt;account (INT)&lt;br&gt;date (TEXT)&lt;/td&gt;&lt;/tr&gt;&lt;tr&gt;&lt;td&gt;&lt;br&gt;&lt;/td&gt;&lt;td&gt;closingBalance (REAL)&lt;br&gt;totalCredit (REAL)&lt;br&gt;totalDebit (REAL)&lt;br&gt;active (INT)&lt;br&gt;createdAt (TIMESTAMP)&lt;br&gt;updatedAt (TIMESTAMP)&lt;br&gt;&lt;/td&gt;&lt;/tr&gt;&lt;tr&gt;&lt;td&gt;&lt;/td&gt;&lt;td&gt;&lt;br&gt;&lt;br&gt;&lt;/td&gt;&lt;/tr&gt;&lt;/tbody&gt;&lt;/table&gt;" style="verticalAlign=top;align=left;overflow=fill;html=1;whiteSpace=wrap;" parent="1" vertex="1">
          <mxGeometry x="1054.5" y="650" width="195.5" height="150" as="geometry" />
        </mxCell>
        <mxCell id="sz-M_Azw0uYvEaWHzbE8-101" style="edgeStyle=orthogonalEdgeStyle;rounded=0;orthogonalLoop=1;jettySize=auto;html=1;entryX=0.5;entryY=0;entryDx=0;entryDy=0;exitX=0.5;exitY=1;exitDx=0;exitDy=0;" parent="1" source="sz-M_Azw0uYvEaWHzbE8-8" target="sz-M_Azw0uYvEaWHzbE8-99" edge="1">
          <mxGeometry relative="1" as="geometry" />
        </mxCell>
        <mxCell id="sz-M_Azw0uYvEaWHzbE8-103" style="edgeStyle=orthogonalEdgeStyle;rounded=0;orthogonalLoop=1;jettySize=auto;html=1;entryX=0.5;entryY=0;entryDx=0;entryDy=0;" parent="1" source="sz-M_Azw0uYvEaWHzbE8-9" target="sz-M_Azw0uYvEaWHzbE8-10" edge="1">
          <mxGeometry relative="1" as="geometry" />
        </mxCell>
        <mxCell id="sz-M_Azw0uYvEaWHzbE8-105" value="settings" style="shape=umlFrame;whiteSpace=wrap;html=1;pointerEvents=0;" parent="1" vertex="1">
          <mxGeometry x="110" y="80" width="660" height="350" as="geometry" />
        </mxCell>
        <mxCell id="sz-M_Azw0uYvEaWHzbE8-106" value="others" style="shape=umlFrame;whiteSpace=wrap;html=1;pointerEvents=0;" parent="1" vertex="1">
          <mxGeometry x="120" y="490" width="680" height="340" as="geometry" />
        </mxCell>
      </root>
    </mxGraphModel>
  </diagram>
</mxfile>
